<svg width="2066pt" height="976pt" viewBox="0.00 0.00 2065.64 976.40" xmlns="http://www.w3.org/2000/svg" xmlns:xlink="http://www.w3.org/1999/xlink">
<g id="graph0" class="graph" transform="scale(1 1) rotate(0) translate(4 972.4)">
<title>eternityII</title>
<polygon fill="white" stroke="none" points="-4,4 -4,-972.4 2061.64,-972.4 2061.64,4 -4,4"></polygon>
<g id="clust1" class="cluster"><title>clusterPathFinder</title>
<polygon fill="none" stroke="black" points="146.641,-274 146.641,-785.8 634.641,-785.8 634.641,-274 146.641,-274"></polygon>
<text text-anchor="middle" x="390.641" y="-769.2" font-family="Times,serif" font-size="14.00">PathFinder</text>
</g>
<g id="clust2" class="cluster"><title>clusterSolver</title>
<polygon fill="none" stroke="black" points="482.641,-793.8 482.641,-960.4 952.641,-960.4 952.641,-793.8 482.641,-793.8"></polygon>
<text text-anchor="middle" x="717.641" y="-943.8" font-family="Times,serif" font-size="14.00">Solver</text>
</g>
<g id="clust3" class="cluster"><title>clusterModel</title>
<polygon fill="none" stroke="black" points="826.641,-103.8 826.641,-440.6 1805.64,-440.6 1805.64,-103.8 826.641,-103.8"></polygon>
<text text-anchor="middle" x="1316.14" y="-424" font-family="Times,serif" font-size="14.00">Model</text>
</g>
<g id="clust4" class="cluster"><title>clusterObs</title>
<polygon fill="none" stroke="black" points="1813.64,-78.6 1813.64,-415.4 2049.64,-415.4 2049.64,-78.6 1813.64,-78.6"></polygon>
<text text-anchor="middle" x="1931.64" y="-398.8" font-family="Times,serif" font-size="14.00">Observer-Observable</text>
</g>
<!-- path -->
<g id="node1" class="node"><title>path</title>
<polygon fill="none" stroke="black" points="350.969,-610.9 350.969,-752.5 626.312,-752.5 626.312,-610.9 350.969,-610.9"></polygon>
<text text-anchor="middle" x="488.641" y="-735.9" font-family="Times,serif" font-size="14.00">PathFinder</text>
<polyline fill="none" stroke="black" points="350.969,-727.7 626.312,-727.7 "></polyline>
<text text-anchor="start" x="358.969" y="-711.1" font-family="Times,serif" font-size="14.00">- variable : unique_ptr≤VariableInterface≥</text>
<text text-anchor="start" x="358.969" y="-694.3" font-family="Times,serif" font-size="14.00"> - value : unique_ptr≤ValueInterface≥</text>
<polyline fill="none" stroke="black" points="350.969,-686.1 626.312,-686.1 "></polyline>
<text text-anchor="start" x="358.969" y="-669.5" font-family="Times,serif" font-size="14.00">+ set(unique_ptr≤VariableInterface≥) : void</text>
<text text-anchor="start" x="358.969" y="-652.7" font-family="Times,serif" font-size="14.00"> + set(unique_ptr≤ValueInterface≥) : void</text>
<text text-anchor="start" x="358.969" y="-635.9" font-family="Times,serif" font-size="14.00"> + nextValue(DataInterface &amp;) : DataInterface</text>
<text text-anchor="start" x="358.969" y="-619.1" font-family="Times,serif" font-size="14.00"> + nextVariable(int &amp;) : DataInterface</text>
</g>
<!-- pvalue -->
<g id="node2" class="node"><title>pvalue</title>
<polygon fill="none" stroke="black" points="198.846,-474.3 198.846,-548.7 398.435,-548.7 398.435,-474.3 198.846,-474.3"></polygon>
<text text-anchor="middle" x="298.641" y="-532.1" font-family="Times,serif" font-size="14.00">PieceNormalValue</text>
<polyline fill="none" stroke="black" points="198.846,-523.9 398.435,-523.9 "></polyline>
<text text-anchor="middle" x="298.641" y="-507.3" font-family="Times,serif" font-size="14.00"> </text>
<polyline fill="none" stroke="black" points="198.846,-499.1 398.435,-499.1 "></polyline>
<text text-anchor="start" x="206.846" y="-482.5" font-family="Times,serif" font-size="14.00">+ next(PieceData &amp;) : PieceData</text>
</g>
<!-- path&#45;&gt;pvalue -->
<g id="edge11" class="edge"><title>path-&gt;pvalue</title>
<path fill="none" stroke="black" d="M400.637,-602.794C379.361,-583.958 357.614,-564.707 339.696,-548.845"></path>
<polygon fill="black" stroke="black" points="400.729,-602.875 407.873,-603.857 409.714,-610.829 402.57,-609.847 400.729,-602.875"></polygon>
<text text-anchor="middle" x="336.196" y="-553.045" font-family="Times,serif" font-size="14.00">1</text>
<text text-anchor="middle" x="406.214" y="-598.229" font-family="Times,serif" font-size="14.00">1</text>
</g>
<!-- cvariable -->
<g id="node3" class="node"><title>cvariable</title>
<polygon fill="none" stroke="black" points="433.828,-474.3 433.828,-548.7 619.453,-548.7 619.453,-474.3 433.828,-474.3"></polygon>
<text text-anchor="middle" x="526.641" y="-532.1" font-family="Times,serif" font-size="14.00">CaseRowscanVariable</text>
<polyline fill="none" stroke="black" points="433.828,-523.9 619.453,-523.9 "></polyline>
<text text-anchor="middle" x="526.641" y="-507.3" font-family="Times,serif" font-size="14.00"> </text>
<polyline fill="none" stroke="black" points="433.828,-499.1 619.453,-499.1 "></polyline>
<text text-anchor="start" x="441.828" y="-482.5" font-family="Times,serif" font-size="14.00">+ next(int &amp;depth) : CaseData</text>
</g>
<!-- path&#45;&gt;cvariable -->
<g id="edge12" class="edge"><title>path-&gt;cvariable</title>
<path fill="none" stroke="black" d="M507.097,-599.005C511.076,-581.395 515.086,-563.644 518.43,-548.845"></path>
<polygon fill="black" stroke="black" points="507.07,-599.124 509.65,-605.858 504.426,-610.829 501.846,-604.095 507.07,-599.124"></polygon>
<text text-anchor="middle" x="514.93" y="-553.045" font-family="Times,serif" font-size="14.00">1</text>
<text text-anchor="middle" x="500.926" y="-598.229" font-family="Times,serif" font-size="14.00">1</text>
</g>
<!-- pdata -->
<g id="node16" class="node"><title>pdata</title>
<polygon fill="none" stroke="black" points="222.584,-116.3 222.584,-182.7 322.697,-182.7 322.697,-116.3 222.584,-116.3"></polygon>
<text text-anchor="middle" x="272.641" y="-166.1" font-family="Times,serif" font-size="14.00">PieceData</text>
<polyline fill="none" stroke="black" points="222.584,-157.9 322.697,-157.9 "></polyline>
<text text-anchor="start" x="230.584" y="-141.3" font-family="Times,serif" font-size="14.00">+ id : int</text>
<text text-anchor="start" x="230.584" y="-124.5" font-family="Times,serif" font-size="14.00"> + rotation : int</text>
</g>
<!-- path&#45;&gt;pdata -->
<g id="edge19" class="edge"><title>path-&gt;pdata</title>
<path fill="none" stroke="black" d="M339.201,-649.74C287.772,-633.639 232.419,-609.672 189.641,-574.4 136.358,-530.468 128.839,-507.217 110.641,-440.6 88.1294,-358.197 68.6711,-322.801 110.641,-248.4 134.375,-206.326 184.267,-180.291 222.451,-165.748"></path>
<polygon fill="none" stroke="black" points="339.313,-649.773 346.216,-647.689 350.796,-653.259 343.893,-655.344 339.313,-649.773"></polygon>
<text text-anchor="middle" x="218.951" y="-169.948" font-family="Times,serif" font-size="14.00">1</text>
<text text-anchor="middle" x="347.296" y="-657.459" font-family="Times,serif" font-size="14.00">1</text>
</g>
<!-- cdata -->
<g id="node17" class="node"><title>cdata</title>
<polygon fill="none" stroke="black" points="676.822,-116.3 676.822,-182.7 746.459,-182.7 746.459,-116.3 676.822,-116.3"></polygon>
<text text-anchor="middle" x="711.641" y="-166.1" font-family="Times,serif" font-size="14.00">CaseData</text>
<polyline fill="none" stroke="black" points="676.822,-157.9 746.459,-157.9 "></polyline>
<text text-anchor="start" x="684.822" y="-141.3" font-family="Times,serif" font-size="14.00">+ x: int</text>
<text text-anchor="start" x="684.822" y="-124.5" font-family="Times,serif" font-size="14.00"> + y: int</text>
</g>
<!-- path&#45;&gt;cdata -->
<g id="edge24" class="edge"><title>path-&gt;cdata</title>
<path fill="none" stroke="black" d="M604.806,-602.236C613.576,-593.511 621.696,-584.207 628.641,-574.4 716.075,-450.928 717.247,-258.794 713.818,-182.906"></path>
<polygon fill="none" stroke="black" points="604.534,-602.495 602.943,-609.529 595.839,-610.766 597.43,-603.732 604.534,-602.495"></polygon>
<text text-anchor="middle" x="710.318" y="-187.106" font-family="Times,serif" font-size="14.00">1</text>
<text text-anchor="middle" x="592.339" y="-598.166" font-family="Times,serif" font-size="14.00">1</text>
</g>
<!-- value -->
<g id="node4" class="node"><title>value</title>
<polygon fill="none" stroke="black" points="154.682,-282.5 154.682,-373.7 396.599,-373.7 396.599,-282.5 154.682,-282.5"></polygon>
<text text-anchor="middle" x="275.641" y="-357.1" font-family="Times,serif" font-size="14.00">«ValueInterface»</text>
<polyline fill="none" stroke="black" points="154.682,-348.9 396.599,-348.9 "></polyline>
<text text-anchor="middle" x="275.641" y="-332.3" font-family="Times,serif" font-size="14.00"> </text>
<polyline fill="none" stroke="black" points="154.682,-324.1 396.599,-324.1 "></polyline>
<text text-anchor="start" x="162.682" y="-307.5" font-family="Times,serif" font-size="14.00">+ initialize(GameData &amp;) : void</text>
<text text-anchor="start" x="162.682" y="-290.7" font-family="Times,serif" font-size="14.00"> + next(DataInterface &amp;) : DataInterface</text>
</g>
<!-- pvalue&#45;&gt;value -->
<g id="edge5" class="edge"><title>pvalue-&gt;value</title>
<path fill="none" stroke="black" stroke-dasharray="5,2" d="M294.041,-474.227C290.77,-448.423 286.315,-413.292 282.609,-384.058"></path>
<polygon fill="none" stroke="black" points="286.062,-383.469 281.332,-373.989 279.118,-384.35 286.062,-383.469"></polygon>
</g>
<!-- pmodel -->
<g id="node10" class="node"><title>pmodel</title>
<polygon fill="none" stroke="black" points="834.78,-248.9 834.78,-407.3 1304.5,-407.3 1304.5,-248.9 834.78,-248.9"></polygon>
<text text-anchor="middle" x="1069.64" y="-390.7" font-family="Times,serif" font-size="14.00">PieceModel</text>
<polyline fill="none" stroke="black" points="834.78,-382.5 1304.5,-382.5 "></polyline>
<text text-anchor="start" x="842.78" y="-365.9" font-family="Times,serif" font-size="14.00">+ casesQte: vector≤int≥</text>
<text text-anchor="start" x="842.78" y="-349.1" font-family="Times,serif" font-size="14.00"> + casesPossible: vector≤vector≤vector≤vector≤bool≥≥≥≥</text>
<text text-anchor="start" x="842.78" y="-332.3" font-family="Times,serif" font-size="14.00"> + isAvailable : vector≤bool≥</text>
<text text-anchor="start" x="842.78" y="-315.5" font-family="Times,serif" font-size="14.00"> - casesQteHistory : vector≤vector≤int≥≥</text>
<text text-anchor="start" x="842.78" y="-298.7" font-family="Times,serif" font-size="14.00"> - casesPossibleHistory: vector≤vector≤vector≤vector≤vector≤bool≥≥≥≥≥</text>
<text text-anchor="start" x="842.78" y="-281.9" font-family="Times,serif" font-size="14.00"> - isAvailableHistory : vector≤vector≤bool≥≥</text>
<polyline fill="none" stroke="black" points="834.78,-273.7 1304.5,-273.7 "></polyline>
<text text-anchor="middle" x="1069.64" y="-257.1" font-family="Times,serif" font-size="14.00"> </text>
</g>
<!-- pvalue&#45;&gt;pmodel -->
<g id="edge15" class="edge"><title>pvalue-&gt;pmodel</title>
<path fill="none" stroke="black" d="M370.537,-468.796C387.741,-460.638 406.418,-453.195 424.641,-448.6 470.785,-436.965 591.553,-447.488 638.641,-440.6 702.976,-431.188 771.571,-415.922 834.678,-399.665"></path>
<polygon fill="none" stroke="black" points="370.234,-468.945 366.613,-475.181 359.464,-474.238 363.085,-468.001 370.234,-468.945"></polygon>
<text text-anchor="middle" x="831.178" y="-403.865" font-family="Times,serif" font-size="14.00">1</text>
<text text-anchor="middle" x="355.964" y="-461.638" font-family="Times,serif" font-size="14.00">1</text>
</g>
<!-- pvalue&#45;&gt;pdata -->
<g id="edge20" class="edge"><title>pvalue-&gt;pdata</title>
<path fill="none" stroke="black" d="M187.998,-478.867C171.2,-469.253 156.034,-456.775 145.641,-440.6 99.4631,-368.735 107.945,-325.055 145.641,-248.4 161.673,-215.799 194.362,-190.995 222.56,-174.511"></path>
<polygon fill="none" stroke="black" points="188.029,-478.883 195.203,-478.15 198.639,-484.49 191.466,-485.223 188.029,-478.883"></polygon>
<text text-anchor="middle" x="219.06" y="-178.711" font-family="Times,serif" font-size="14.00">1</text>
<text text-anchor="middle" x="195.139" y="-488.69" font-family="Times,serif" font-size="14.00">1</text>
</g>
<!-- variable -->
<g id="node5" class="node"><title>variable</title>
<polygon fill="none" stroke="black" points="414.818,-282.5 414.818,-373.7 626.463,-373.7 626.463,-282.5 414.818,-282.5"></polygon>
<text text-anchor="middle" x="520.641" y="-357.1" font-family="Times,serif" font-size="14.00">«VariableInterface»</text>
<polyline fill="none" stroke="black" points="414.818,-348.9 626.463,-348.9 "></polyline>
<text text-anchor="middle" x="520.641" y="-332.3" font-family="Times,serif" font-size="14.00"> </text>
<polyline fill="none" stroke="black" points="414.818,-324.1 626.463,-324.1 "></polyline>
<text text-anchor="start" x="422.818" y="-307.5" font-family="Times,serif" font-size="14.00">+ initialize(GameData &amp;) : void</text>
<text text-anchor="start" x="422.818" y="-290.7" font-family="Times,serif" font-size="14.00"> + next(int &amp;depth) : DataInterface</text>
</g>
<!-- cvariable&#45;&gt;variable -->
<g id="edge6" class="edge"><title>cvariable-&gt;variable</title>
<path fill="none" stroke="black" stroke-dasharray="5,2" d="M525.441,-474.227C524.587,-448.423 523.425,-413.292 522.458,-384.058"></path>
<polygon fill="none" stroke="black" points="525.954,-383.867 522.125,-373.989 518.958,-384.099 525.954,-383.867"></polygon>
</g>
<!-- cmodel -->
<g id="node9" class="node"><title>cmodel</title>
<polygon fill="none" stroke="black" points="1322.06,-248.9 1322.06,-407.3 1797.22,-407.3 1797.22,-248.9 1322.06,-248.9"></polygon>
<text text-anchor="middle" x="1559.64" y="-390.7" font-family="Times,serif" font-size="14.00">CaseModel</text>
<polyline fill="none" stroke="black" points="1322.06,-382.5 1797.22,-382.5 "></polyline>
<text text-anchor="start" x="1330.06" y="-365.9" font-family="Times,serif" font-size="14.00">+ piecesQte: vector≤vector≤int≥≥</text>
<text text-anchor="start" x="1330.06" y="-349.1" font-family="Times,serif" font-size="14.00"> + piecesPossible: vector≤vector≤vector≤vector≤bool≥≥≥≥</text>
<text text-anchor="start" x="1330.06" y="-332.3" font-family="Times,serif" font-size="14.00"> + isAvailable : vector≤vector≤int≥≥</text>
<text text-anchor="start" x="1330.06" y="-315.5" font-family="Times,serif" font-size="14.00"> - piecesQteHistory : vector≤vector≤vector≤int≥≥≥</text>
<text text-anchor="start" x="1330.06" y="-298.7" font-family="Times,serif" font-size="14.00"> - piecesPossibleHistory: vector≤vector≤vector≤vector≤vector≤bool≥≥≥≥≥</text>
<text text-anchor="start" x="1330.06" y="-281.9" font-family="Times,serif" font-size="14.00"> - isAvailableHistory: vector≤vector≤vector≤bool≥≥≥</text>
<polyline fill="none" stroke="black" points="1322.06,-273.7 1797.22,-273.7 "></polyline>
<text text-anchor="middle" x="1559.64" y="-257.1" font-family="Times,serif" font-size="14.00"> </text>
</g>
<!-- cvariable&#45;&gt;cmodel -->
<g id="edge17" class="edge"><title>cvariable-&gt;cmodel</title>
<path fill="none" stroke="black" d="M631.663,-486.278C696.654,-472.448 782.033,-456.36 858.641,-448.6 908.947,-443.504 1264.31,-451.712 1313.64,-440.6 1346.81,-433.129 1380.92,-420.947 1412.78,-407.321"></path>
<polygon fill="none" stroke="black" points="631.505,-486.312 626.478,-491.482 619.772,-488.831 624.799,-483.661 631.505,-486.312"></polygon>
<text text-anchor="middle" x="1409.28" y="-411.521" font-family="Times,serif" font-size="14.00">1</text>
<text text-anchor="middle" x="623.272" y="-493.031" font-family="Times,serif" font-size="14.00">1</text>
</g>
<!-- cvariable&#45;&gt;cdata -->
<g id="edge25" class="edge"><title>cvariable-&gt;cdata</title>
<path fill="none" stroke="black" d="M610.543,-466.874C620.057,-459.163 628.78,-450.41 635.641,-440.6 685.81,-368.87 655.072,-332.701 678.641,-248.4 684.822,-226.29 693.072,-201.815 699.777,-182.867"></path>
<polygon fill="none" stroke="black" points="610.377,-467 608.005,-473.81 600.806,-474.239 603.179,-467.429 610.377,-467"></polygon>
<text text-anchor="middle" x="696.277" y="-187.067" font-family="Times,serif" font-size="14.00">1</text>
<text text-anchor="middle" x="597.306" y="-461.639" font-family="Times,serif" font-size="14.00">1</text>
</g>
<!-- solver -->
<g id="node6" class="node"><title>solver</title>
<polygon fill="none" stroke="black" points="746.985,-819.1 746.985,-910.3 944.296,-910.3 944.296,-819.1 746.985,-819.1"></polygon>
<text text-anchor="middle" x="845.641" y="-893.7" font-family="Times,serif" font-size="14.00">«SolverInterface»</text>
<polyline fill="none" stroke="black" points="746.985,-885.5 944.296,-885.5 "></polyline>
<text text-anchor="middle" x="845.641" y="-868.9" font-family="Times,serif" font-size="14.00"> </text>
<polyline fill="none" stroke="black" points="746.985,-860.7 944.296,-860.7 "></polyline>
<text text-anchor="start" x="754.985" y="-844.1" font-family="Times,serif" font-size="14.00">+ initialize(PathFinder &amp;) : void</text>
<text text-anchor="middle" x="845.641" y="-827.3" font-family="Times,serif" font-size="14.00"> + resolve() : void</text>
</g>
<!-- pcsolver -->
<g id="node7" class="node"><title>pcsolver</title>
<polygon fill="none" stroke="black" points="490.456,-802.3 490.456,-927.1 728.825,-927.1 728.825,-802.3 490.456,-802.3"></polygon>
<text text-anchor="middle" x="609.641" y="-910.5" font-family="Times,serif" font-size="14.00">PieceCaseSolver</text>
<polyline fill="none" stroke="black" points="490.456,-902.3 728.825,-902.3 "></polyline>
<text text-anchor="start" x="498.456" y="-885.7" font-family="Times,serif" font-size="14.00">- pathFinder : PathFinder *</text>
<polyline fill="none" stroke="black" points="490.456,-877.5 728.825,-877.5 "></polyline>
<text text-anchor="start" x="498.456" y="-860.9" font-family="Times,serif" font-size="14.00">- resolve(int &amp;depth) : void</text>
<text text-anchor="start" x="498.456" y="-844.1" font-family="Times,serif" font-size="14.00"> - resolve(VariableData &amp;, int &amp;) : void</text>
<text text-anchor="start" x="498.456" y="-827.3" font-family="Times,serif" font-size="14.00"> - isValid(PieceData &amp;) : bool</text>
<text text-anchor="start" x="498.456" y="-810.5" font-family="Times,serif" font-size="14.00"> - isValid(CaseData &amp;) : bool</text>
</g>
<!-- pcsolver&#45;&gt;path -->
<g id="edge13" class="edge"><title>pcsolver-&gt;path</title>
<path fill="none" stroke="black" d="M561.682,-791.96C553.06,-779.062 544.082,-765.632 535.491,-752.782"></path>
<polygon fill="none" stroke="black" points="561.838,-792.193 568.497,-794.958 568.507,-802.169 561.847,-799.404 561.838,-792.193"></polygon>
<text text-anchor="middle" x="531.991" y="-756.982" font-family="Times,serif" font-size="14.00">1</text>
<text text-anchor="middle" x="565.007" y="-789.569" font-family="Times,serif" font-size="14.00">1</text>
</g>
<!-- pcsolver&#45;&gt;solver -->
<g id="edge1" class="edge"><title>pcsolver-&gt;solver</title>
<path fill="none" stroke="black" stroke-dasharray="5,2" d="M729.023,-864.7C731.522,-864.7 734.02,-864.7 736.518,-864.7"></path>
<polygon fill="none" stroke="black" points="736.789,-868.2 746.789,-864.7 736.789,-861.2 736.789,-868.2"></polygon>
</g>
<!-- pcconstraint -->
<g id="node14" class="node"><title>pcconstraint</title>
<polygon fill="none" stroke="black" points="867.613,-449.1 867.613,-573.9 1051.67,-573.9 1051.67,-449.1 867.613,-449.1"></polygon>
<text text-anchor="middle" x="959.641" y="-557.3" font-family="Times,serif" font-size="14.00">PieceCaseConstraint</text>
<polyline fill="none" stroke="black" points="867.613,-549.1 1051.67,-549.1 "></polyline>
<text text-anchor="middle" x="959.641" y="-532.5" font-family="Times,serif" font-size="14.00"> </text>
<polyline fill="none" stroke="black" points="867.613,-524.3 1051.67,-524.3 "></polyline>
<text text-anchor="start" x="875.613" y="-507.7" font-family="Times,serif" font-size="14.00">+ accept(CaseData &amp;): void</text>
<text text-anchor="start" x="875.613" y="-490.9" font-family="Times,serif" font-size="14.00"> + accept(PieceData &amp;): void</text>
<text text-anchor="start" x="875.613" y="-474.1" font-family="Times,serif" font-size="14.00"> + discard(CaseData &amp;): void</text>
<text text-anchor="start" x="875.613" y="-457.3" font-family="Times,serif" font-size="14.00"> + discard(PieceData &amp;): void</text>
</g>
<!-- pcsolver&#45;&gt;pcconstraint -->
<g id="edge14" class="edge"><title>pcsolver-&gt;pcconstraint</title>
<path fill="none" stroke="black" d="M733.514,-794.915C737.34,-791.941 741.061,-788.9 744.641,-785.8 816.968,-723.153 882.151,-633.315 921.311,-573.971"></path>
<polygon fill="none" stroke="black" points="733.419,-794.986 731.007,-801.782 723.806,-802.169 726.218,-795.373 733.419,-794.986"></polygon>
<text text-anchor="middle" x="917.811" y="-578.171" font-family="Times,serif" font-size="14.00">1</text>
<text text-anchor="middle" x="727.306" y="-789.569" font-family="Times,serif" font-size="14.00">1</text>
</g>
<!-- pcsolver&#45;&gt;pdata -->
<g id="edge21" class="edge"><title>pcsolver-&gt;pdata</title>
<path fill="none" stroke="black" d="M477.979,-858.374C356.723,-850.612 188.839,-831.685 142.641,-785.8 -27.8746,-616.441 -42.4648,-453.599 82.6406,-248.4 112.871,-198.816 177.147,-173.269 222.545,-160.9"></path>
<polygon fill="none" stroke="black" points="478.324,-858.395 484.559,-854.773 490.301,-859.135 484.066,-862.758 478.324,-858.395"></polygon>
<text text-anchor="middle" x="219.045" y="-148.3" font-family="Times,serif" font-size="14.00">1</text>
<text text-anchor="middle" x="486.801" y="-863.335" font-family="Times,serif" font-size="14.00">1</text>
</g>
<!-- pcsolver&#45;&gt;cdata -->
<g id="edge26" class="edge"><title>pcsolver-&gt;cdata</title>
<path fill="none" stroke="black" d="M637.281,-790.268C637.747,-788.769 638.201,-787.278 638.641,-785.8 683.513,-635.046 699.2,-596.92 716.641,-440.6 726.113,-355.705 718.82,-333.794 716.641,-248.4 716.085,-226.623 714.835,-202.148 713.724,-183.117"></path>
<polygon fill="none" stroke="black" points="637.218,-790.461 639.168,-797.404 633.51,-801.874 631.56,-794.931 637.218,-790.461"></polygon>
<text text-anchor="middle" x="717.224" y="-187.317" font-family="Times,serif" font-size="14.00">1</text>
<text text-anchor="middle" x="630.01" y="-789.274" font-family="Times,serif" font-size="14.00">1</text>
</g>
<!-- model -->
<g id="node8" class="node"><title>model</title>
<polygon fill="none" stroke="black" points="1470.32,-112.3 1470.32,-186.7 1648.96,-186.7 1648.96,-112.3 1470.32,-112.3"></polygon>
<text text-anchor="middle" x="1559.64" y="-170.1" font-family="Times,serif" font-size="14.00">«ModelInterface»</text>
<polyline fill="none" stroke="black" points="1470.32,-161.9 1648.96,-161.9 "></polyline>
<text text-anchor="middle" x="1559.64" y="-145.3" font-family="Times,serif" font-size="14.00"> </text>
<polyline fill="none" stroke="black" points="1470.32,-137.1 1648.96,-137.1 "></polyline>
<text text-anchor="start" x="1478.32" y="-120.5" font-family="Times,serif" font-size="14.00">+ rollback(int &amp;depth) : void</text>
</g>
<!-- observable -->
<g id="node12" class="node"><title>observable</title>
<polygon fill="none" stroke="black" points="1821.16,-87.1 1821.16,-211.9 2028.13,-211.9 2028.13,-87.1 1821.16,-87.1"></polygon>
<text text-anchor="middle" x="1924.64" y="-195.3" font-family="Times,serif" font-size="14.00">«ObservableInterface»</text>
<polyline fill="none" stroke="black" points="1821.16,-187.1 2028.13,-187.1 "></polyline>
<text text-anchor="start" x="1829.16" y="-170.5" font-family="Times,serif" font-size="14.00"># observers:vector≤Observer *≥</text>
<polyline fill="none" stroke="black" points="1821.16,-162.3 2028.13,-162.3 "></polyline>
<text text-anchor="start" x="1829.16" y="-145.7" font-family="Times,serif" font-size="14.00">+ add(Observer &amp;) : void</text>
<text text-anchor="start" x="1829.16" y="-128.9" font-family="Times,serif" font-size="14.00"> + remove(int &amp;) : void</text>
<text text-anchor="start" x="1829.16" y="-112.1" font-family="Times,serif" font-size="14.00"> + accept(DataInterface &amp;) : void</text>
<text text-anchor="start" x="1829.16" y="-95.3" font-family="Times,serif" font-size="14.00"> + discard(DataInterface &amp;) : void</text>
</g>
<!-- model&#45;&gt;observable -->
<g id="edge8" class="edge"><title>model-&gt;observable</title>
<path fill="none" stroke="black" stroke-dasharray="5,2" d="M1649.11,-149.5C1703.06,-149.5 1757.02,-149.5 1810.97,-149.5"></path>
<polygon fill="none" stroke="black" points="1811.05,-153 1821.05,-149.5 1811.05,-146 1811.05,-153"></polygon>
</g>
<!-- cmodel&#45;&gt;model -->
<g id="edge3" class="edge"><title>cmodel-&gt;model</title>
<path fill="none" stroke="black" stroke-dasharray="5,2" d="M1559.64,-248.869C1559.64,-231.16 1559.64,-212.903 1559.64,-196.998"></path>
<polygon fill="none" stroke="black" points="1563.14,-196.915 1559.64,-186.915 1556.14,-196.915 1563.14,-196.915"></polygon>
</g>
<!-- cmodel&#45;&gt;cdata -->
<g id="edge27" class="edge"><title>cmodel-&gt;cdata</title>
<path fill="none" stroke="black" d="M1309.99,-247.823C1096.38,-209.202 1028.47,-274.033 822.641,-212.4 795.585,-204.298 767.835,-188.823 746.849,-175.374"></path>
<polygon fill="none" stroke="black" points="1310.13,-247.85 1316.77,-245.024 1321.93,-250.061 1315.29,-252.887 1310.13,-247.85"></polygon>
<text text-anchor="middle" x="750.349" y="-179.574" font-family="Times,serif" font-size="14.00">1</text>
<text text-anchor="middle" x="1318.43" y="-254.261" font-family="Times,serif" font-size="14.00">1</text>
</g>
<!-- pmodel&#45;&gt;model -->
<g id="edge4" class="edge"><title>pmodel-&gt;model</title>
<path fill="none" stroke="black" stroke-dasharray="5,2" d="M1286.7,-248.869C1347.43,-226.984 1410.47,-204.263 1460.65,-186.178"></path>
<polygon fill="none" stroke="black" points="1461.96,-189.424 1470.19,-182.741 1459.59,-182.838 1461.96,-189.424"></polygon>
</g>
<!-- pmodel&#45;&gt;pdata -->
<g id="edge22" class="edge"><title>pmodel-&gt;pdata</title>
<path fill="none" stroke="black" d="M822.764,-258.084C809.217,-254.709 795.776,-251.457 782.641,-248.4 615.359,-209.471 414.629,-174.268 322.863,-158.802"></path>
<polygon fill="none" stroke="black" points="823.053,-258.156 829.847,-255.738 834.692,-261.08 827.898,-263.497 823.053,-258.156"></polygon>
<text text-anchor="middle" x="326.363" y="-163.002" font-family="Times,serif" font-size="14.00">1</text>
<text text-anchor="middle" x="831.192" y="-265.28" font-family="Times,serif" font-size="14.00">1</text>
</g>
<!-- observer -->
<g id="node11" class="node"><title>observer</title>
<polygon fill="none" stroke="black" points="1821.55,-274.1 1821.55,-382.1 2041.73,-382.1 2041.73,-274.1 1821.55,-274.1"></polygon>
<text text-anchor="middle" x="1931.64" y="-365.5" font-family="Times,serif" font-size="14.00">«ObserverInterface»</text>
<polyline fill="none" stroke="black" points="1821.55,-357.3 2041.73,-357.3 "></polyline>
<text text-anchor="middle" x="1931.64" y="-340.7" font-family="Times,serif" font-size="14.00"> </text>
<polyline fill="none" stroke="black" points="1821.55,-332.5 2041.73,-332.5 "></polyline>
<text text-anchor="start" x="1829.55" y="-315.9" font-family="Times,serif" font-size="14.00">//TOADAPT</text>
<text text-anchor="start" x="1829.55" y="-299.1" font-family="Times,serif" font-size="14.00"> + accepted(DataInterface &amp;) : void</text>
<text text-anchor="start" x="1829.55" y="-282.3" font-family="Times,serif" font-size="14.00"> + discarded(DataInterface &amp;) : void</text>
</g>
<!-- constraint -->
<g id="node13" class="node"><title>constraint</title>
<polygon fill="none" stroke="black" points="1441.04,-465.9 1441.04,-557.1 1678.24,-557.1 1678.24,-465.9 1441.04,-465.9"></polygon>
<text text-anchor="middle" x="1559.64" y="-540.5" font-family="Times,serif" font-size="14.00">«ConstraintInterface»</text>
<polyline fill="none" stroke="black" points="1441.04,-532.3 1678.24,-532.3 "></polyline>
<text text-anchor="start" x="1449.04" y="-515.7" font-family="Times,serif" font-size="14.00">//TOADAPT # first : ModelInterface &amp;</text>
<text text-anchor="start" x="1449.04" y="-498.9" font-family="Times,serif" font-size="14.00"> # second : ModelInterface &amp;</text>
<polyline fill="none" stroke="black" points="1441.04,-490.7 1678.24,-490.7 "></polyline>
<text text-anchor="middle" x="1559.64" y="-474.1" font-family="Times,serif" font-size="14.00">+ rollback(int &amp;depth) : void</text>
</g>
<!-- constraint&#45;&gt;observer -->
<g id="edge7" class="edge"><title>constraint-&gt;observer</title>
<path fill="none" stroke="black" stroke-dasharray="5,2" d="M1678.25,-489.339C1721.36,-478.606 1769.35,-462.957 1809.64,-440.6 1833.89,-427.145 1857.22,-407.956 1876.87,-389.281"></path>
<polygon fill="none" stroke="black" points="1879.47,-391.635 1884.21,-382.162 1874.59,-386.609 1879.47,-391.635"></polygon>
</g>
<!-- pcconstraint&#45;&gt;cmodel -->
<g id="edge18" class="edge"><title>pcconstraint-&gt;cmodel</title>
<path fill="none" stroke="black" d="M1063.81,-496.406C1135.19,-485.185 1231.45,-466.951 1313.64,-440.6 1342.44,-431.366 1372.34,-419.708 1400.97,-407.432"></path>
<polygon fill="none" stroke="black" points="1063.54,-496.448 1058.22,-501.319 1051.68,-498.284 1057,-493.413 1063.54,-496.448"></polygon>
<text text-anchor="middle" x="1397.47" y="-411.632" font-family="Times,serif" font-size="14.00">1</text>
<text text-anchor="middle" x="1055.18" y="-502.484" font-family="Times,serif" font-size="14.00">1</text>
</g>
<!-- pcconstraint&#45;&gt;pmodel -->
<g id="edge16" class="edge"><title>pcconstraint-&gt;pmodel</title>
<path fill="none" stroke="black" d="M1003.25,-438.585C1009.44,-428.371 1015.84,-417.824 1022.1,-407.494"></path>
<polygon fill="none" stroke="black" points="1003.1,-438.825 1003.41,-446.03 996.882,-449.086 996.572,-441.882 1003.1,-438.825"></polygon>
<text text-anchor="middle" x="1018.6" y="-411.694" font-family="Times,serif" font-size="14.00">1</text>
<text text-anchor="middle" x="1000.38" y="-436.486" font-family="Times,serif" font-size="14.00">1</text>
</g>
<!-- pcconstraint&#45;&gt;constraint -->
<g id="edge2" class="edge"><title>pcconstraint-&gt;constraint</title>
<path fill="none" stroke="black" stroke-dasharray="5,2" d="M1051.93,-511.5C1178.08,-511.5 1304.24,-511.5 1430.4,-511.5"></path>
<polygon fill="none" stroke="black" points="1430.64,-515 1440.64,-511.5 1430.64,-508 1430.64,-515"></polygon>
</g>
<!-- pcconstraint&#45;&gt;pdata -->
<g id="edge23" class="edge"><title>pcconstraint-&gt;pdata</title>
<path fill="none" stroke="black" d="M856.03,-480.582C830.552,-470.357 804.374,-457.189 782.641,-440.6 697.795,-375.838 727.06,-308.19 638.641,-248.4 539.882,-181.619 397.501,-160.326 322.772,-153.585"></path>
<polygon fill="none" stroke="black" points="856.085,-480.604 863.124,-479.036 867.278,-484.93 860.24,-486.498 856.085,-480.604"></polygon>
<text text-anchor="middle" x="326.272" y="-140.985" font-family="Times,serif" font-size="14.00">1</text>
<text text-anchor="middle" x="863.778" y="-489.13" font-family="Times,serif" font-size="14.00">1</text>
</g>
<!-- pcconstraint&#45;&gt;cdata -->
<g id="edge28" class="edge"><title>pcconstraint-&gt;cdata</title>
<path fill="none" stroke="black" d="M856.876,-471.475C843.879,-462.946 831.91,-452.741 822.641,-440.6 769.691,-371.251 817.926,-328.2 782.641,-248.4 772.112,-224.589 755.125,-200.876 740.407,-182.752"></path>
<polygon fill="none" stroke="black" points="857.249,-471.703 864.455,-471.418 867.489,-477.96 860.283,-478.245 857.249,-471.703"></polygon>
<text text-anchor="middle" x="743.907" y="-186.952" font-family="Times,serif" font-size="14.00">1</text>
<text text-anchor="middle" x="863.989" y="-465.36" font-family="Times,serif" font-size="14.00">1</text>
</g>
<!-- data -->
<g id="node15" class="node"><title>data</title>
<polygon fill="none" stroke="black" points="506.901,-0.5 506.901,-50.1 622.38,-50.1 622.38,-0.5 506.901,-0.5"></polygon>
<text text-anchor="middle" x="564.641" y="-33.5" font-family="Times,serif" font-size="14.00">«DataInterface»</text>
<polyline fill="none" stroke="black" points="506.901,-25.3 622.38,-25.3 "></polyline>
<text text-anchor="start" x="514.901" y="-8.7" font-family="Times,serif" font-size="14.00">+ valid: bool</text>
</g>
<!-- pdata&#45;&gt;data -->
<g id="edge9" class="edge"><title>pdata-&gt;data</title>
<path fill="none" stroke="black" stroke-dasharray="5,2" d="M322.837,-127.493C371.292,-107.215 444.953,-76.3884 498.24,-54.0884"></path>
<polygon fill="black" stroke="black" points="499.734,-57.2572 507.608,-50.1679 497.032,-50.7998 499.734,-57.2572"></polygon>
</g>
<!-- cdata&#45;&gt;data -->
<g id="edge10" class="edge"><title>cdata-&gt;data</title>
<path fill="none" stroke="black" stroke-dasharray="5,2" d="M676.804,-119.54C654.019,-100.6 624.306,-75.8991 601.186,-56.6798"></path>
<polygon fill="black" stroke="black" points="603.233,-53.8299 593.305,-50.1288 598.758,-59.2129 603.233,-53.8299"></polygon>
</g>
</g>
</svg>
